<?xml version="1.0" encoding="UTF-8"?>
<svg version="1.1" viewBox="0 0 1333.3 1333.3" xml:space="preserve" xmlns="http://www.w3.org/2000/svg"><g transform="matrix(1.3333 0 0 -1.3333 0 1333.3)"><g transform="scale(.1)"><path d="m9196 1124h-8444.6v-125.96h8444.6v125.96" fill="#e3edf5"/><path d="m1268.5 1748.5s233.33 599.28 993.34 881.63c597.1 221.82 1457.3-326.57 1457.3-326.57s-749.46-357.68-1193.4-361.59c-657.77-5.79-1257.2-193.47-1257.2-193.47" fill="#bdffd8"/><path d="m2047.3 4560s365.2-658.27 1040.4-1346c759.33-773.4 459.06-1350.8 459.06-1350.8s-1208.4 115.82-1584 959.36c-298.82 671.11 84.52 1737.5 84.52 1737.5" fill="#dcf5f9"/><path d="m8027.6 5880.4c-2.46 12.66-14.71 20.92-27.37 18.46-12.67-2.48-20.91-14.73-18.45-27.37 0.65-3.35 65.04-340.37 63.68-868.18-1.25-487.5-60.54-1241.2-335.88-2063.5-246.05-734.82-614.19-1217.3-974.31-1512.5h249.07c315 293.57 607.02 708.57 852.5 1441.7 277.32 828.23 292.83 1669.2 294.1 2160.1 1.37 532.32-102.68 847.93-103.34 851.31" fill="#bcf7e2"/><path d="m8074.2 4353.5c-33.2 271.95 103.22 772.34 396.56 986.48 250.32 182.74 372.14 379.54 372.14 379.54s54.53-221.47 30.22-491.41c-16.36-181.5-160.69-410.61-334.4-491.81-308.9-144.39-464.52-382.8-464.52-382.8" fill="#bcf7e2"/><path d="m8045.8 5554.2c-139.72 333.98-312.05 532.21-267.49 875.7 33.73 259.96-9.95 582.18-9.95 582.18s216.75-147.43 356.62-346.99c126.32-180.24 155.34-410.93 93.11-598.12-44.83-134.91-172.29-512.77-172.29-512.77" fill="#bcf7e2"/><path d="m7784.6 2809.7c137.36 419.98 284.66 1164.3 600.18 1451.8 360.06 328 573.84 325.06 751.86 553.53 0 0 12.2-218.4-28.97-582.55-37.18-328.9-248.11-924.63-587.05-1033-422.67-135.17-736.02-389.73-736.02-389.73" fill="#bcf7e2"/><path d="m7373.8 6194.3c222.03-427.02 797.67-826.12 679.78-1670.5 0 0-209.45 289.07-386.5 393.87-258.94 153.27-357.38 448.65-361.7 745.02-3.11 213.57 68.42 531.65 68.42 531.65" fill="#bcf7e2"/><path d="m9259.3 2660.7c-573.33-401.5-540-644.87-1416.2-822.57-596.2-120.92-777.35-377.4-777.35-377.4s291.52 540.84 525.22 829.27c151.55 187.05 385.97 410.22 870.51 477.37 314.48 43.58 797.83-106.67 797.83-106.67" fill="#bcf7e2"/><path d="m7199.5 1792.8c-252.04 507.04-403.91 972.15-440.77 1267.4-55.53 444.75 68.44 811.12 68.44 811.12s0.81-79.94 333.71-286.83c300.67-186.86 436.72-403.95 458.06-752 24.4-397.86-419.44-1039.7-419.44-1039.7" fill="#bcf7e2"/><path d="m7853.3 3175.3c-228.05 427.88-581.2 564.14-618.12 1039.2-29.74 382.64-276.83 600.46-276.83 600.46s395.83-34.7 685.79-203.7c261.9-152.64 296.47-328.97 349.71-622.77 72.64-400.86-140.55-813.23-140.55-813.23" fill="#bcf7e2"/><path d="m4564.9 1127.3 2493.7-20.3c68.04-0.58 123.66 54.12 124.23 122.16l44.58 5302.4c0.57 68.04-54.12 123.66-122.17 124.24l-2493.7 20.3c-68.04 0.57-123.66-54.12-124.23-122.16l-44.58-5302.4c-0.57-68.04 54.12-123.66 122.16-124.23" fill="#4acfd3"/><path d="m4403.3 1128.4 2493.7-20.3c68.04-0.58 123.67 54.12 124.24 122.16l44.57 5302.4c0.58 68.05-54.12 123.67-122.16 124.24l-2493.7 20.3c-68.03 0.57-123.66-54.12-124.23-122.16l-44.57-5302.4c-0.58-68.05 54.12-123.67 122.16-124.24" fill="#8ceae7"/><path d="m4285.1 1726.8-820.15 6.67 1.18 140.5c51.18-7.98 80.65-10.81 80.65-10.81s75.49 145.14 55.05 387.4c73.13 31.93 117.24 52.98 117.24 52.98s-51 32.51-136.76 78.5c-19.72 93.19-53.9 196.66-109.34 308.56l44.51 5311.3 3389.4-27.57-11.04-1316.8-230.7 1.88 1.31 219.89v1.45c0.01 39.29-9.65 76.85-26.94 110.74-25.95 50.88-68.85 93.58-122.25 123.69-53.43 30.11-117.49 47.7-186.32 48.11l-1274.3 7.58-2.45 0.01c-91.51-0.02-174.79-30.42-235.88-80.57-30.54-25.09-55.53-55.17-72.99-88.93-17.47-33.74-27.33-71.2-27.55-110.47l-1.25-208.83-5.9-6.76-99.14 0.81h-1.06c-2.2 0-4.39-0.06-6.57-0.17l-153.95 1.25c-0.34 0.01-0.7 0.01-1.05 0.01-67.56 0-122.61-54.48-123.18-122.17l-2.73-324.49-23.12-26.53 22.89-1.13-18.91-2249.2-245.93 1.47h0.1-2.56c-91.65-0.02-175.06-30.47-236.25-80.7-30.58-25.12-55.61-55.25-73.1-89.06-17.49-33.79-27.37-71.3-27.59-110.64l-4.6-771.6 0.01 0.11-0.01-1.54c-0.01-39.35 9.66-76.96 26.98-110.91 25.99-50.96 68.96-93.73 122.45-123.89 53.51-30.15 117.67-47.77 186.62-48.19l242.65-1.44-7.48-890.52m2340 4932.9-1868.6 15.21 1.28 215.72c0.21 32.74 8.34 63.8 23.09 92.34 22.09 42.76 59.27 79.78 106.64 106.07 47.34 26.3 104.73 41.8 166.67 41.8h0.03l2.2-0.01 1274.3-7.58c82.87-0.47 157.39-28.66 210.64-73 26.63-22.16 47.93-48.3 62.54-76.96 14.6-28.68 22.57-59.84 22.57-92.58v-1.22l-1.3-219.79" fill="#eaf9fc"/><path d="m3601.8 2250.6c-3.47 41.1-9.69 85.01-19.52 131.48 85.76-45.99 136.76-78.5 136.76-78.5s-44.11-21.05-117.24-52.98" fill="#d0f9ec"/><path d="m3546.8 1863.2s-29.47 2.83-80.65 10.81l6.84 816.63c55.44-111.9 89.62-215.37 109.34-308.56 9.83-46.47 16.05-90.38 19.52-131.48 20.44-242.26-55.05-387.4-55.05-387.4" fill="#dcf5f9"/><path d="m6895.8 6657.3-230.7 1.88v0.23l230.7-1.88v-0.23m-270.7 2.21-1868.6 15.21v0.23l1868.6-15.21-0.01-0.23m-1914.7 15.58-106.58 0.87c2.18 0.11 4.37 0.17 6.57 0.17h1.06l99.14-0.81-0.19-0.23" fill="#a2e6ea"/><path d="m4292.9 2657.3-242.76 1.45c-83.01 0.47-157.67 28.72-211.01 73.14-26.68 22.2-48.02 48.39-62.65 77.1-14.63 28.73-22.61 59.95-22.62 92.75v1.32l4.6 771.47c0.2 32.8 8.35 63.92 23.12 92.51 22.14 42.84 59.38 79.92 106.83 106.26 47.42 26.34 104.91 41.87 166.96 41.87h0.03 2.22l245.84-1.47-5.09-604.91-70.71 0.42-0.24-40 70.62-0.42-5.14-611.49m-177.75 652.58-0.24-40 23.88-0.14 0.23 40-23.87 0.14" fill="#eaf9fc"/><path d="m6854.3 1705.9-2569.2 20.9 7.48 890.52 1033.7-6.15h0.06l2.4-0.01c91.65 0.02 175.06 30.48 236.24 80.7 30.59 25.13 55.62 55.25 73.11 89.06 17.49 33.79 27.37 71.31 27.59 110.65l0.37 62.01 419.02-9.55-27.45 33.63-15.49-12.65 0.46 20-0.46-20 15.49 12.65-388.59 476.1 1.25 209.4v1.43c0.01 39.36-9.66 76.97-26.98 110.92-25.99 50.96-68.96 93.72-122.45 123.88-53.51 30.16-117.67 47.78-186.61 48.19l-1030.4 6.13 18.91 2249.2 18.3-0.9 372.54-18.36-0.37-63.07v0.05l-0.01-1.48c-0.01-39.3 9.65-76.85 26.94-110.75 25.96-50.87 68.86-93.57 122.26-123.68 53.43-30.11 117.49-47.7 186.33-48.11l1274.3-7.59h2.45c91.51 0.02 174.78 30.42 235.87 80.57 30.54 25.09 55.54 55.17 73 88.93 17.46 33.73 27.33 71.19 27.55 110.47l3.27 550.2 230.7-1.88-41.49-4951.4m-1978.8 3634.2c-78.39 0-142.29-63.23-142.95-141.77l-5.28-628.91c-0.66-78.96 62.81-143.51 141.77-144.17l1624.8-13.66h1.23c78.39 0 142.28 63.22 142.94 141.77l5.29 628.9c0.66 78.96-62.81 143.51-141.77 144.17l-1624.8 13.67h-1.23m453.21-2689h-0.03l-2.27 0.01h0.05l-1033.6 6.14 5.14 611.49 18.02-0.11 0.24 40-17.93 0.11 5.09 604.91 1030.5-6.13c83.01-0.47 157.67-28.71 211.01-73.13 26.68-22.2 48.02-48.39 62.65-77.1 14.63-28.73 22.61-59.95 22.62-92.76v-1.31 0.12l-1.33-223.79 370.24-453.61-372.9 8.49-0.61-102.69c-0.2-32.8-8.35-63.92-23.12-92.5-22.14-42.84-59.38-79.92-106.83-106.27-47.42-26.33-104.91-41.87-166.96-41.87m-214.69 652.78-0.24-39.99 88.64-0.53 0.24 40-88.64 0.52m-177.28 1.06-0.24-40 88.64-0.53 0.24 40-88.64 0.53m-177.29 1.05-0.23-40 88.64-0.52 0.24 40-88.65 0.52m-177.28 1.06-0.23-40 88.64-0.53 0.24 40-88.65 0.53m-177.28 1.05-0.24-40 88.65-0.52 0.23 40-88.64 0.52m1920.5 2560.8h-0.03-2.24l-1274.2 7.59c-82.88 0.47-157.4 28.66-210.65 73-26.63 22.16-47.93 48.3-62.54 76.96-14.6 28.68-22.57 59.83-22.58 92.58l0.01 1.15v0.04l0.6 101.38-369.61 18.21 372.26 427.08 0.05 7.72 1868.6-15.21-3.27-550.29c-0.2-32.74-8.34-63.81-23.08-92.34-22.1-42.76-59.28-79.78-106.64-106.07-47.34-26.29-104.73-41.8-166.67-41.8m-449.08 421.72-0.24-40 88.64-0.52 0.24 40-88.64 0.52m-177.28 1.06-0.24-40 88.64-0.53 0.24 40-88.64 0.53m-177.28 1.05-0.24-40 88.64-0.52 0.24 39.99-88.64 0.53m-177.28 1.06-0.24-40 88.64-0.53 0.24 40-88.64 0.53m-177.28 1.05-0.24-40 88.64-0.53 0.24 40-88.64 0.53m896.72 312.03-0.23-40 88.64-0.52 0.23 40-88.64 0.52m-177.28 1.06-0.23-40 88.64-0.53 0.24 40-88.65 0.53m-177.28 1.05-0.23-40 88.64-0.52 0.23 40-88.64 0.52m-177.28 1.06-0.24-40 88.64-0.53 0.24 40-88.64 0.53m-177.28 1.05-0.24-40 88.64-0.52 0.24 39.99-88.64 0.53m-177.28 1.06-0.24-40 88.64-0.53 0.24 40-88.64 0.53m-854.62-381.7 2.73 324.49c0.57 67.69 55.62 122.17 123.18 122.17 0.35 0 0.71 0 1.05-0.01l260.53-2.12-387.49-444.53" fill="#bcf1f2"/><path d="m4292.6 2617.4-242.65 1.44c-68.95 0.42-133.11 18.04-186.62 48.19-53.49 30.16-96.46 72.93-122.45 123.89-17.32 33.95-26.99 71.56-26.98 110.91l0.01 1.54-0.01-0.11 4.6 771.6c0.22 39.34 10.1 76.85 27.59 110.64 17.49 33.81 42.52 63.94 73.1 89.06 61.19 50.23 144.6 80.68 236.25 80.7h2.56-0.1l245.93-1.47-0.33-40-245.84 1.47h-2.22-0.03c-62.05 0-119.54-15.53-166.96-41.87-47.45-26.34-84.69-63.42-106.83-106.26-14.77-28.59-22.92-59.71-23.12-92.51l-4.6-771.47v-1.32c0.01-32.8 7.99-64.02 22.62-92.75 14.63-28.71 35.97-54.9 62.65-77.1 53.34-44.42 128-72.67 211.01-73.14l242.76-1.45-0.34-39.99" fill="#f7fdfe"/><path d="m5328.8 2611.2-2.4 0.01h-0.06l-1033.7 6.15 0.34 39.99 1033.6-6.14h-0.05l2.27-0.01h0.03c62.05 0 119.54 15.54 166.96 41.87 47.45 26.35 84.69 63.43 106.83 106.27 14.77 28.58 22.92 59.7 23.12 92.5l0.61 102.69 372.9-8.49-370.24 453.61 1.33 223.79v-0.12 1.31c-0.01 32.81-7.99 64.03-22.62 92.76-14.63 28.71-35.97 54.9-62.65 77.1-53.34 44.42-128 72.66-211.01 73.13l-1030.5 6.13 0.33 40 1030.4-6.13c68.94-0.41 133.1-18.03 186.61-48.19 53.49-30.16 96.46-72.92 122.45-123.88 17.32-33.95 26.99-71.56 26.98-110.92v-1.43l-1.25-209.4 388.59-476.1-15.49-12.65 0.46 20-0.46-20 15.49 12.65 27.45-33.63-419.02 9.55-0.37-62.01c-0.22-39.34-10.1-76.86-27.59-110.65-17.49-33.81-42.52-63.93-73.11-89.06-61.18-50.22-144.59-80.68-236.24-80.7" fill="#e4f9fa"/><path d="m5202.5 3263.4-88.64 0.53 0.24 39.99 88.64-0.52-0.24-40m-177.28 1.05-88.64 0.53 0.24 40 88.64-0.53-0.24-40m-177.28 1.06-88.64 0.52 0.23 40 88.65-0.52-0.24-40m-177.28 1.05-88.64 0.53 0.23 40 88.65-0.53-0.24-40m-177.28 1.06-88.65 0.52 0.24 40 88.64-0.52-0.23-40" fill="#e4f9fa"/><path d="m4298.1 3268.8-70.62 0.42 0.24 40 70.71-0.42-0.33-40" fill="#f7fdfe"/><path d="m4316.1 3268.7-18.02 0.11 0.33 40 17.93-0.11-0.24-40" fill="#e4f9fa"/><path d="m4138.8 3269.8-23.88 0.14 0.24 40 23.87-0.14-0.23-40" fill="#f7fdfe"/><path d="m4322.7 6202.9-22.89 1.13 23.12 26.53-0.23-27.66m2342.4 456.51-39.99 0.33 1.3 219.79v1.22c0 32.74-7.97 63.9-22.57 92.58-14.61 28.66-35.91 54.8-62.54 76.96-53.25 44.34-127.77 72.53-210.64 73l-1274.3 7.58-2.2 0.01h-0.03c-61.94 0-119.33-15.5-166.67-41.8-47.37-26.29-84.55-63.31-106.64-106.07-14.75-28.54-22.88-59.6-23.09-92.34l-1.28-215.72-45.86 0.37 5.9 6.76 1.25 208.83c0.22 39.27 10.08 76.73 27.55 110.47 17.46 33.76 42.45 63.84 72.99 88.93 61.09 50.15 144.37 80.55 235.88 80.57l2.45-0.01 1274.3-7.58c68.83-0.41 132.89-18 186.32-48.11 53.4-30.11 96.3-72.81 122.25-123.69 17.29-33.89 26.95-71.45 26.94-110.74v-1.45l-1.31-219.89" fill="#f7fdfe"/><path d="m6665.1 6659.2-40 0.33 0.01 0.23 39.99-0.33v-0.23m-1908.6 15.54-46.05 0.37 0.19 0.23 45.86-0.37v-0.23" fill="#daf5f7"/><path d="m6325.4 5829h-2.45l-1274.3 7.59c-68.84 0.41-132.9 18-186.33 48.11-53.4 30.11-96.3 72.81-122.26 123.68-17.29 33.9-26.95 71.45-26.94 110.75l0.01 1.48v-0.05l0.37 63.07-372.54 18.36-18.3 0.9 0.23 27.66 387.49 444.53 46.05-0.37-0.05-7.72-372.26-427.08 369.61-18.21-0.6-101.38v-0.04l-0.01-1.15c0.01-32.75 7.98-63.9 22.58-92.58 14.61-28.66 35.91-54.8 62.54-76.96 53.25-44.34 127.77-72.53 210.65-73l1274.2-7.59h2.24 0.03c61.94 0 119.33 15.51 166.67 41.8 47.36 26.29 84.54 63.31 106.64 106.07 14.74 28.53 22.88 59.6 23.08 92.34l3.27 550.29 40-0.33-3.27-550.2c-0.22-39.28-10.09-76.74-27.55-110.47-17.46-33.76-42.46-63.84-73-88.93-61.09-50.15-144.36-80.55-235.87-80.57" fill="#e4f9fa"/><path d="m6152.4 6566.5-88.64 0.52 0.23 40 88.64-0.52-0.23-40m-177.28 1.05-88.64 0.53 0.23 40 88.65-0.53-0.24-40m-177.28 1.06-88.64 0.52 0.23 40 88.64-0.52-0.23-40m-177.29 1.05-88.64 0.53 0.24 40 88.64-0.53-0.24-40m-177.28 1.06-88.64 0.52 0.24 40 88.64-0.53-0.24-39.99m-177.28 1.05-88.64 0.53 0.24 40 88.64-0.53-0.24-40" fill="#e4f9fa"/><path d="m5964.8 6250.2-88.64 0.52 0.24 40 88.64-0.52-0.24-40m-177.28 1.05-88.64 0.53 0.24 40 88.64-0.53-0.24-40m-177.28 1.06-88.64 0.52 0.24 40 88.64-0.53-0.24-39.99m-177.28 1.05-88.64 0.53 0.24 40 88.64-0.53-0.24-40m-177.28 1.05-88.64 0.53 0.24 40 88.64-0.53-0.24-40" fill="#e4f9fa"/><path d="m6495.2 4411.7h-1.23l-1624.8 13.66c-78.96 0.66-142.43 65.21-141.77 144.17l5.28 628.91c0.66 78.54 64.56 141.77 142.95 141.77h1.23l1624.8-13.67c78.96-0.66 142.43-65.21 141.77-144.17l-5.29-628.9c-0.66-78.55-64.55-141.77-142.94-141.77" fill="#cff3f6"/><path d="m5818.2 1298.3-324.33 2.18c-28.16 0.19-50.85 23.17-50.66 51.34l0.22 32.16c0.19 28.16 23.17 50.84 51.34 50.65l324.33-2.17c28.16-0.19 50.84-23.18 50.65-51.34l-0.21-32.16c-0.19-28.16-23.18-50.85-51.34-50.66" fill="#92ffdd"/><path d="m3327.3 2283-995.43-122.16s1347.5-869.57 1625.3-869.57c306.93 0 1314.3 488.04 1314.3 488.04l-806.68 520.82-1137.4-17.13" fill="#004381"/><path d="m4414.2 3065.3 462.85-668.28s-95.02-159.84-100.32-198.94c-37.03-273.19 127.16-310.9 212.51-275.82 148.43 61.02 376.84 436.6 351.78 502.49-164.13 431.71-325.19 842.3-515.19 1251.2-29.08 62.58-83.17 215.71-123.18 175.32-97-97.93-289.02-944.06-288.45-785.92" fill="#00d0bc"/><path d="m3562.9 3084.6-526.89-532.35s100.54-139.15 56-294.29c-10.19-35.5-95.4-145.93-193.89-153.48-165.11-12.66-403.17 275.34-360.08 483.41 93.39 450.97 420.44 748.93 602.33 1161.2 40.78 92.43 130.25 211.45 165.63 178.44 100.93-94.16 257.47-1001.1 256.9-842.94" fill="#00d0bc"/><path d="m2077.3 1863.2-17.81-274.03s516.08-358.78 766.31-459.11c97.43-39.06 919.12-148.36 919.12-148.36l80.02 326.7-1747.6 554.8" fill="#004381"/><path d="m3875 1396.9 906.98-259.29-3.53-300.05s-422.04 17.559-549.57 29.5c-81.1 7.59-462.52 65.91-462.52 65.91l108.64 463.93" fill="#ffd0ce"/><path d="m3901.2 1378.1-721.42-269.38 30.39-272.84s345.14 31.559 448.82 47.129c65.94 9.899 373.97 77.051 373.97 77.051l-131.76 418.04" fill="#ffd0ce"/><path d="m4529.7 1157.7s200.03-13.51 296.04 11.39c51.1 13.25 151.43 74.35 198.15 71.87 120.15-6.39 202.52-214.13 214.19-285.6 8.65-52.992-85.92-139.79-141.44-138.2-259.86 7.41-564.83 26.707-564.83 26.707l21.59 69.43c12.68 40.812 14.19 84.093 4.37 125.63l-28.07 118.77" fill="#003977"/><path d="m2892.6 794.45c23.92-10.367 91.31-11.117 116.9-5.597 87.85 18.968 330.88 57.269 330.88 57.269-74.55 47.809-110.78 135.13-91.03 219.44l16.73 71.42-165.44 65.06s-137.59-45.36-194.17-134c-116.5-182.51-67.37-250.39-13.87-273.59" fill="#003977"/><path d="m4147 4579.2-320.84-128.51c-9.51 0.08-33.25-183.47-33.34-192.65l-13.29-315.19c-0.93-101.86 94.2-182.99 199.66-183.89 105.46-0.91 206.51 78.82 207.45 180.67l-22.58 622.8c0.09 9.18-7.55 16.69-17.06 16.77" fill="#ffc7c4"/><path d="m3237.1 3866.8c51.96 88.43 501.63 206.87 501.63 206.87l242.7-254.17 348.21 245.99s343.42-131.51 415.5-257.43c62.71-109.54 4.91-612.83-51.69-972.94-63.26-402.54-55.21-676.35-69.81-698.26-39.76-59.68-147.92-79.04-217.52-93.57-199.93-41.77-1107.2-65.4-1145.9 155.94-29.2 167.17 10.27 549.26-11.83 885.2-9.99 151.92-60.13 699.31-11.32 782.37" fill="#34eabe"/><path d="m3979.6 3821 95.68-181.68c137.9 120.01 435.92 378.66 435.92 378.66l-206.32 132.77-325.28-329.75" fill="#00d0bc"/><path d="m3982.4 3821.9-101.68-181.68c-137.89 120.01-303.92 394.2-303.92 394.2l168.07 101.41 237.53-313.93" fill="#00d0bc"/><path d="m4376.2 4134.1c168.5-560.31-110.8-995.58-110.8-995.58l-264.57-23.04s219.65 479.88 183 927.24c-1.25 15.14-4.37 79.15-1.18 93.23 24.2 106.67 63.49 201.14 118.12 138.91 13.04-14.86 66.04-109.54 75.43-140.76" fill="#00649f"/><path d="m4364.2 5032.3c138.8-142.15 175.38-466.38 42.94-607.2-114.55-121.8-551.65-135.52-587.6-130.33-381.19 55.03-336.68 438.23-252.45 592.9 141.61 260.05 538.12 409.85 797.11 144.63" fill="#00649f"/><path d="m4288.9 4434.9c-2.15 46.95 35.13 86.68 83.26 88.74 48.14 2.06 88.91-34.32 91.06-81.27 2.16-46.95-35.12-86.68-83.25-88.74-48.14-2.06-88.91 34.32-91.07 81.27" fill="#ffc7c4"/><path d="m3678.8 4438.6c0-47-39.06-85.09-87.25-85.09-48.18 0-87.24 38.09-87.24 85.09 0 46.99 39.06 85.09 87.24 85.09 48.19 0 87.25-38.1 87.25-85.09" fill="#ffc7c4"/><path d="m4367.4 4434.9c0-280.5-201.45-492.84-376.71-492.84-185.04 0-374.37 212.34-374.37 492.84 0 280.49 168.13 507.87 375.54 507.87 207.4 0 375.54-227.38 375.54-507.87" fill="#ffd0ce"/><path d="m4186.7 4927c248.66-100.2 262.81-369.95 248.47-433.12-13.1-57.68-53.59-97.7-69.02-96.46-175.11 14.04-602.43 257.33-602.43 257.33s-238.77-173.37-69.09-814.96c0 0-140.43 237.31-147.61 563.64-9.09 412.97 278.82 668.99 639.68 523.57" fill="#00649f"/><path d="m4343.4 2205c2.97 1.94 69.01 53.79 116.88 54.13 95.74 0.69 194.09-70.39 292.7-43.97 32.95 8.83 88.55 3.29 119.47-10.82l64.08-29.23c49.64-22.65 65.9-84.12 32.18-125.96-34.73-43.1-83.68-86.32-140.54-86.83-57.8-0.52-137.7 38.13-195.49 38.78-33.83 0.39-88.29-49.17-120.21-59.95-10.72-3.63-33.66-11.69-44.54-8.56-4.52 1.3-14.06 12.11-14.06 12.11s-35.19-23.99-49.01-25.64c-12.96-1.55-50.61 12.51-50.61 12.51l140.97 159.27-99.25-47.08s-53.4-47.94-75.96-54c-25.97-6.97-40.49 13.66-40.49 13.66l149.83 174.2s-116.38-55.17-153.23-47.71c-16.36 3.31-39.26 21.67-39.26 21.67l106.54 53.42" fill="#ffd0ce"/><path d="m3356.7 2548.4c-3.57 0.24-87.61 13.25-129.25-9.58-83.25-45.65-131.61-154.7-230.69-179.45-33.11-8.27-78.38-39.91-97.86-67.07l-40.35-56.27c-31.25-43.58-13.5-104.67 37.36-124.61 52.39-20.55 117.16-34.34 166.67-7.31 50.31 27.46 99.5 99.52 149.2 128 29.09 16.67 101.91 0.06 135.15 6.14 11.15 2.04 35.19 6.14 42.99 14.1 3.24 3.3 5.91 17.28 5.91 17.28s42.89-3.79 55.72 1.47c12.03 4.92 37.35 35.27 37.35 35.27l-204.55 69.85 110.32 7.16s71.07-15.72 93.75-10.07c26.09 6.5 27.99 31.38 27.99 31.38l-219.96 78.48s129.35 8.44 157.4 32.7c12.46 10.77 22.78 37.73 22.78 37.73l-119.93-5.2" fill="#ffd0ce"/><path d="m3143 2737 1664.7-45.08c31.88-0.87 55.63-25.77 50.58-53.03l-175.08-944.52-1595.5 63.9 0.72 932.98c0.02 25.85 24.73 46.56 54.56 45.75" fill="#71eaec"/><path d="m1958.6 1924.6c-31.65-86.97 22.41-292.15 88.43-358.74 161.42-162.79 841.94-389.48 841.94-389.48l1170.9-342.37 207.48 355.41-1512.8 861.59s-329.31 147.03-445.73 136.66c-110.45-9.84-313.43-162.01-350.21-263.07" fill="#00649f"/><path d="m3825.5 1259.7s972.45 531.98 1440.8 833.68c108.67 70.02 432.71-20.75 506.25-125.03 67.42-95.6 15.18-368.68-59.54-459.08-250.19-302.68-1642.9-479.22-1642.9-479.22l-244.59 229.65" fill="#00649f"/><path d="m4020.1 2394.5c0-29.25-27.38-42.69-61.17-42.69-33.78 0-61.17 13.44-61.17 42.69 0 29.24 27.39 43.77 61.17 43.77 33.79 0 61.17-14.53 61.17-43.77" fill="#bdffd8"/><path d="m3125.1 8823.8c1.75 1.88 4.13 2.84 6.52 2.84 2.18 0 4.35-0.79 6.06-2.38 3.6-3.35 3.8-9 0.46-12.6-3.34-3.58-8.99-3.79-12.59-0.45-3.59 3.35-3.79 8.99-0.45 12.59zm15.9-82.27c-16.79-24.83-16.47-57.15 0.49-81.54l-15.68-16.86-167.91 156.13 15.62 16.79c26.19-17.34 60.12-15.94 84.61 3.32l33.86 26.63c-14.04-19.69-11.85-47.19 6.33-64.09 9.4-8.74 21.36-13.06 33.28-13.06 13.12 0 26.22 5.24 35.83 15.58 18.36 19.75 17.24 50.75-2.51 69.12-14.24 13.24-34.29 16.18-51.27 9.48l29.5 23.2c3.98 3.13 8.07 6.11 12.23 8.97l54.58-50.75c-2.57-4.39-5.28-8.72-8.14-12.98zm99.49 190.34c-2.7-13.77-7.57-33.06-12.42-49.6l-36.27 33.7c16.41 6.11 35.2 12.26 48.69 15.9zm34.37 36.89c-7.59 7.05-16.49 14.65-97.33-15.38l-1.33-0.55c-20.52-9.35-39.95-21.17-57.76-35.14l-85.04-66.88c-10.91-8.58-26.02-9.2-37.61-1.53l-3.24 2.15c-14.61 9.67-33.89 7.38-45.83-5.46l-31.73-34.12c-7.52-8.09-7.06-20.74 1.03-28.27l48.6-45.19c-3.47-0.94-6.74-2.78-9.37-5.61l-49.19-52.9c-7.52-8.09-7.06-20.74 1.02-28.27 3.86-3.58 8.74-5.35 13.62-5.35 5.36 0 10.71 2.14 14.65 6.38l49.19 52.9c2.63 2.83 4.23 6.23 4.92 9.76l12.44-11.57c-3.47-0.95-6.74-2.79-9.37-5.62l-94.28-101.38c-7.51-8.09-7.06-20.74 1.03-28.27 3.85-3.58 8.74-5.35 13.62-5.35 5.36 0 10.71 2.14 14.65 6.38l94.27 101.39c2.63 2.83 4.22 6.22 4.92 9.75l13.04-12.13c-3.47-0.95-6.74-2.78-9.37-5.61l-49.19-52.9c-7.52-8.09-7.06-20.74 1.03-28.27 3.85-3.58 8.73-5.35 13.61-5.35 5.36 0 10.71 2.15 14.65 6.38l49.19 52.9c2.63 2.83 4.23 6.23 4.92 9.76l48.61-45.2c3.7-3.44 8.57-5.35 13.61-5.35l0.73 0.02c5.3 0.19 10.31 2.48 13.92 6.36l31.73 34.13c11.93 12.84 12.82 32.23 2.1 46.11-8.5 11-8.97 26.13-1.19 37.65l60.85 89.98c12.74 18.93 23.12 39.08 30.83 59.89l0.43 1.3c24.63 83.57 16.12 91.49 8.62 98.46" fill="#dcf5f9"/><path d="m1761.8 6311.3c-3.62 0-7.3 0.99-10.59 3.05l-95.17 59.56c-9.36 5.86-12.2 18.2-6.34 27.57 5.86 9.36 18.2 12.2 27.56 6.34l95.17-59.56c9.36-5.86 12.2-18.21 6.34-27.57-3.79-6.06-10.31-9.39-16.97-9.39" fill="#dcf5f9"/><path d="m1395.5 6311.3c-6.78 0-13.38 3.45-17.14 9.67-5.71 9.46-2.67 21.75 6.79 27.46l98.69 59.56c9.46 5.7 21.75 2.66 27.46-6.79 5.7-9.46 2.66-21.75-6.79-27.46l-98.69-59.56c-3.24-1.95-6.8-2.88-10.32-2.88" fill="#dcf5f9"/><path d="m1579.9 6419.6c-7.29 0-14.58 2.3-20.81 6.89l-175.46 129.65c-8.89 6.56-10.77 19.09-4.2 27.97 6.56 8.89 19.08 10.76 27.97 4.2l172.5-127.46 172.5 127.46c8.88 6.57 21.41 4.69 27.97-4.2 6.57-8.88 4.69-21.41-4.2-27.97l-175.46-129.64c-6.23-4.6-13.52-6.9-20.81-6.9" fill="#dcf5f9"/><path d="m1415.5 6342.6h328.77v209.72h-328.77zm348.77-40h-368.77c-11.04 0-20 8.96-20 20v249.72c0 11.04 8.96 20 20 20h368.77c11.05 0 20-8.96 20-20v-249.72c0-11.04-8.95-20-20-20" fill="#dcf5f9"/><path d="m8011.7 8056.2c-5.45-3.44-8.9-9.3-9.28-15.74-0.43-7.31-1.69-14.6-3.76-21.67-1.83-6.2-0.54-12.9 3.45-17.98l14.88-18.95-6.57-10.39-23.48 5.3c-6.3 1.43-12.89-0.28-17.71-4.57-5.5-4.89-11.55-9.16-18.01-12.71-5.63-3.1-9.44-8.72-10.22-15.12l-2.9-23.91-11.98-2.7-12.85 20.34c-3.44 5.46-9.31 8.92-15.75 9.29-7.32 0.42-14.61 1.68-21.67 3.75-1.85 0.54-3.74 0.81-5.62 0.81-4.43 0-8.79-1.47-12.35-4.27l-18.95-14.86-10.39 6.57 5.3 23.47c1.42 6.29-0.28 12.88-4.57 17.7-4.88 5.48-9.16 11.54-12.74 18.04-3.11 5.63-8.73 9.43-15.12 10.19l-23.88 2.89-2.71 12 20.34 12.85c5.43 3.43 8.89 9.27 9.28 15.69 0.45 7.37 1.72 14.7 3.79 21.78 1.8 6.18 0.5 12.85-3.47 17.93l-14.86 18.94 6.57 10.4 23.49-5.3c6.29-1.41 12.87 0.27 17.69 4.56 5.55 4.93 11.6 9.2 17.99 12.7 5.67 3.1 9.49 8.75 10.26 15.16l2.87 23.89 11.99 2.69 12.87-20.35c3.44-5.45 9.31-8.9 15.74-9.27 7.28-0.43 14.59-1.69 21.72-3.76 6.18-1.8 12.86-0.52 17.93 3.47l18.94 14.87 10.38-6.57-5.31-23.48c-1.42-6.3 0.28-12.9 4.58-17.72 4.88-5.48 9.16-11.54 12.71-18.01 3.11-5.65 8.75-9.45 15.14-10.22l23.89-2.87 2.7-12zm53.57 47.43c-1.87 8.26-8.72 14.45-17.13 15.46l-28.2 3.39c-1.81 2.77-3.73 5.48-5.73 8.11l6.26 27.71c1.88 8.26-1.66 16.8-8.81 21.32l-34.25 21.66c-7.15 4.52-16.38 4.06-23.03-1.17l-22.37-17.55c-3.25 0.68-6.51 1.25-9.79 1.7l-15.19 24.02c-4.52 7.14-13.04 10.65-21.3 8.82l-39.52-8.9c-8.26-1.86-14.45-8.72-15.47-17.13l-3.38-28.2c-2.78-1.81-5.49-3.72-8.13-5.73l-27.72 6.25c-8.25 1.83-16.79-1.67-21.31-8.82l-21.65-34.25c-4.52-7.15-4.05-16.37 1.17-23.03l17.53-22.36c-0.68-3.24-1.24-6.51-1.7-9.79l-24.02-15.18c-7.16-4.52-10.7-13.05-8.83-21.31l8.91-39.53c1.86-8.26 8.71-14.45 17.11-15.46l28.21-3.41c1.82-2.78 3.73-5.49 5.73-8.12l-6.25-27.7c-1.86-8.25 1.67-16.78 8.82-21.31l34.25-21.66c7.15-4.51 16.38-4.04 23.03 1.17l22.36 17.54c3.25-0.68 6.52-1.25 9.8-1.69l15.16-24.01c3.72-5.89 10.15-9.32 16.91-9.32 1.46 0 2.94 0.16 4.4 0.48l39.52 8.91c8.25 1.86 14.43 8.71 15.46 17.1l3.41 28.22c2.78 1.82 5.49 3.73 8.13 5.74l27.72-6.26c8.26-1.87 16.79 1.67 21.31 8.83l21.65 34.27c4.51 7.15 4.05 16.37-1.18 23.02l-17.54 22.34c0.7 3.25 1.26 6.52 1.71 9.81l24.02 15.17c7.15 4.52 10.69 13.05 8.83 21.31l-8.91 39.54" fill="#dcf5f9"/><path d="m7922.8 8034.2c-3.27-5.17-8.35-8.76-14.32-10.1-5.98-1.36-12.12-0.29-17.29 2.97-5.17 3.27-8.76 8.36-10.1 14.33-1.35 5.98-0.29 12.12 2.98 17.3 3.27 5.17 8.36 8.76 14.34 10.1 1.69 0.38 3.39 0.57 5.08 0.57 4.28 0 8.49-1.21 12.19-3.55 5.17-3.27 8.76-8.36 10.11-14.33 1.34-5.97 0.28-12.11-2.99-17.29zm14.26 65.43c-14.21 8.98-31.06 11.89-47.44 8.19-16.4-3.69-30.38-13.55-39.36-27.76-8.97-14.2-11.88-31.05-8.19-47.45 3.69-16.39 13.55-30.36 27.75-39.34 10.18-6.44 21.72-9.76 33.48-9.76 4.65 0 9.33 0.52 13.98 1.57 16.39 3.69 30.36 13.54 39.33 27.75 8.99 14.21 11.89 31.06 8.2 47.45-3.69 16.4-13.55 30.37-27.75 39.35" fill="#dcf5f9"/><path d="m8164.8 8207.8-6.03 31.53c-1.58 8.32-8.23 14.73-16.6 16.02l-20.35 3.13c-0.75 1.21-1.53 2.39-2.35 3.57l5.21 19.92c2.14 8.19-1.1 16.84-8.11 21.6l-26.55 18.04c-7 4.76-16.23 4.59-23.06-0.41l-16.62-12.18c-1.39 0.32-2.79 0.61-4.19 0.87l-10.43 17.77c-4.27 7.3-12.68 11.11-20.99 9.52l-31.52-6.01c-8.33-1.58-14.74-8.23-16.03-16.6l-3.14-20.35c-1.2-0.76-2.39-1.54-3.57-2.34l-19.93 5.19c-8.18 2.12-16.83-1.12-21.58-8.11l-18.04-26.56c-4.76-7-4.59-16.23 0.4-23.06l17.87-24.4c6.53-8.92 19.04-10.85 27.96-4.32 8.91 6.52 10.84 19.04 4.32 27.95l-9.53 13.02 2.17 3.21 15.63-4.07c6.23-1.61 12.87-0.15 17.83 3.97 4.28 3.57 8.92 6.61 13.78 9.07 5.77 2.91 9.78 8.43 10.76 14.81l2.45 15.95 3.81 0.72 8.17-13.92c3.27-5.56 9.01-9.21 15.42-9.8 5.45-0.49 10.89-1.62 16.19-3.36 6.13-2 12.84-0.93 18.03 2.88l13.03 9.54 3.2-2.17-4.08-15.62c-1.63-6.24-0.14-12.89 3.99-17.85 3.52-4.23 6.58-8.88 9.08-13.81 2.92-5.75 8.43-9.74 14.79-10.72l15.94-2.46 0.73-3.81-13.92-8.16c-5.56-3.26-9.21-9.01-9.8-15.43-0.5-5.47-1.63-10.89-3.36-16.13-2.02-6.14-0.95-12.88 2.86-18.1l7.43-10.12-21.04 5.84c-10.64 2.92-21.67-3.28-24.62-13.92-2.96-10.64 3.27-21.66 13.92-24.62l35.56-9.88c1.77-0.49 3.58-0.73 5.36-0.73 5.84 0 11.49 2.56 15.35 7.18l17.42 20.86c5.89 7.05 6.21 17.22 0.77 24.64l-12.16 16.59c0.32 1.39 0.61 2.8 0.87 4.2l17.78 10.42c7.29 4.28 11.11 12.69 9.52 21.01" fill="#dcf5f9"/><path d="m2572 5301.8c-15.63 0-31.25-5.95-43.15-17.84-23.8-23.8-23.8-62.52 0-86.32l148.15-148.15 148.15 148.15c23.8 23.8 23.8 62.52 0 86.32-23.79 23.78-62.51 23.78-86.31 0l-47.7-47.7c-7.81-7.82-20.47-7.82-28.28 0l-47.7 47.7c-11.9 11.89-27.53 17.84-43.16 17.84zm105.41-300.18c-1.23 0.45-2.82 0.15-4.2 0.45-3.97 0.61-7.76 2.4-10.77 5.41l-161.88 161.88c-39.39 39.39-39.39 103.49 0 142.88 39.4 39.39 103.49 39.4 142.88 0l33.56-33.56 33.56 33.56c39.39 39.39 103.48 39.4 142.87 0 39.4-39.39 39.4-103.49 0.01-142.88l-161.88-161.88c-3.75-3.75-8.84-5.86-14.15-5.86" fill="#dcf5f9"/><path d="m1477.7 8493.6-32.59 23.2 82.41 115.74 121.18-81.67-22.35-33.16-88.86 59.87-59.79-83.98" fill="#dcf5f9"/><path d="m2831.6 7116.2 85.77-12.28 11.69 81.72-85.76 12.28zm119.7-57.55-164.96 23.62 23.03 160.9 164.96-23.6-23.03-160.92" fill="#dcf5f9"/><path d="m8793.1 6784.1-6.4 39.49 58.84 9.54 6.4-39.5-58.84-9.53" fill="#dcf5f9"/><path d="m8851.9 6848.2-9.35 57.75 39.48 6.38 9.35-57.74-39.48-6.39" fill="#dcf5f9"/><path d="m8916.3 6804-6.39 39.5 55.65 9.01 6.4-39.49-55.66-9.02" fill="#dcf5f9"/><path d="m8872.4 6722-9.88 61.04 39.49 6.38 9.87-61.03-39.48-6.39" fill="#dcf5f9"/><path d="m5567.1 8742.9c-9.06 0-17.96-2.52-25.84-7.43-11.13-6.92-18.9-17.77-21.88-30.54-6.13-26.36 10.33-52.81 36.69-58.94 26.39-6.12 52.81 10.33 58.94 36.68 6.13 26.36-10.33 52.8-36.69 58.94-3.73 0.86-7.49 1.29-11.22 1.29zm0.09-138.2c-6.66 0-13.42 0.75-20.18 2.33-47.85 11.14-77.71 59.12-66.58 106.96 5.39 23.18 19.49 42.87 39.69 55.45 20.21 12.56 44.09 16.53 67.27 11.13 47.84-11.14 77.71-59.12 66.57-106.96-9.56-41.08-46.29-68.91-86.77-68.91" fill="#dcf5f9"/><path d="m1219.7 2849.9 85.77-12.28 11.69 81.72-85.76 12.28zm119.7-57.55-164.96 23.62 23.03 160.9 164.96-23.6-23.03-160.92" fill="#dcf5f9"/></g></g></svg>
